<?xml version="1.0" encoding="UTF-8"?>
<svg id="Layer_2" data-name="Layer 2" xmlns="http://www.w3.org/2000/svg" viewBox="0 0 1920 1080">
  <g id="Layer_1" data-name="Layer 1">
    <g>
      <rect x="420" y="-420" width="1080" height="1920" transform="translate(1500 -420) rotate(90)" fill="#1a206a"/>
      <g>
        <g>
          <path d="M790.37,488.25l-18.33,71.38c-8.76,33.42-15.25,44.61-39.09,44.61s-30.33-13.3-37.96-43.15l-8.27-31.15c-4.38-15.74-6-18.17-9.73-18.17s-5.19,2.43-9.57,18.17l-8.27,31.15c-7.62,29.85-14.6,43.15-37.96,43.15s-30.33-11.19-39.09-44.61l-18.33-71.38h29.04l17.36,68.29c4.06,16.38,5.84,21.41,11.03,21.41,4.87,0,6.81-5.68,11.03-21.41l8.44-34.07c7.3-27.25,12.49-36.99,36.34-36.99s29.2,9.73,36.34,36.99l8.6,34.07c4.22,15.73,6.16,21.41,11.03,21.41,5.19,0,6.98-5.03,11.03-21.41l17.36-68.29h29.04Z" fill="#fff"/>
          <path d="M832.7,486.79v6.16c0,6.98-3.89,10.87-14.76,10.87h-1.95c-10.87,0-14.76-3.89-14.76-10.87v-6.16c0-6.98,3.89-11.03,14.76-11.03h1.95c10.87,0,14.76,4.06,14.76,11.03ZM803.82,512.42l26.28.16v88.89h-26.28v-89.06Z" fill="#fff"/>
          <path d="M971.06,601.48h-27.58l-4.87-16.22c-3.57-12.65-9.57-16.87-26.6-16.87h-34.55v33.25h-26.28v-125.88l26.28.32v68.46h35.69c16.22-.16,22.06-4.38,25.47-16.71l4.7-15.25h27.58l-6,18.82c-4.05,13.46-6.81,21.25-17.36,25.14,10.54,3.73,13.3,11.68,17.36,25.14l6.16,19.79Z" fill="#fff"/>
          <path d="M1015.99,486.79v6.16c0,6.98-3.89,10.87-14.76,10.87h-1.95c-10.87,0-14.76-3.89-14.76-10.87v-6.16c0-6.98,3.89-11.03,14.76-11.03h1.95c10.87,0,14.76,4.06,14.76,11.03ZM987.12,512.42l26.28.16v88.89h-26.28v-89.06Z" fill="#fff"/>
          <path d="M1215.35,549.41v52.07h-26.28v-48.5c0-11.03-6.49-16.71-23.52-16.71h-6.16c-16.22,0-22.87,5.03-23.52,15.09v50.12h-26.44v-50.12c-.65-10.06-7.14-15.09-23.36-15.09h-6.16c-17.2,0-23.52,5.68-23.52,16.71v48.5h-26.28v-52.07c0-23.2,15.09-36.82,47.21-36.82h6.16c20.28,0,33.09,5.35,39.26,16.22,6.16-10.87,18.82-16.22,39.26-16.22h6.16c32.12,0,47.21,13.63,47.21,36.82Z" fill="#fff"/>
          <path d="M1332.63,548.11v53.37h-62.62c-20.93,0-38.61-6-38.61-26.93v-2.92c0-22.55,19.95-26.93,38.45-26.93h36.5c-.81-6.98-4.06-10.22-11.52-10.22h-57.75v-21.9h62.45c22.39,0,33.09,15.09,33.09,35.53ZM1306.35,564.82h-38.77c-6.16,0-9.9,2.76-9.9,6.81v.97c0,5.19,3.73,6.97,9.9,6.97h38.77v-14.76Z" fill="#fff"/>
        </g>
        <g>
          <path d="M1346.18,499.38c-5.55,0-10.07-4.52-10.07-10.07s4.52-10.07,10.07-10.07,10.07,4.52,10.07,10.07-4.52,10.07-10.07,10.07ZM1346.18,480.06c-5.1,0-9.26,4.15-9.26,9.26s4.15,9.26,9.26,9.26,9.26-4.15,9.26-9.26-4.15-9.26-9.26-9.26Z" fill="#fff"/>
          <path d="M1349.75,491.04l1.53.39c-.32,1.25-.9,2.21-1.73,2.87-.83.66-1.85.99-3.05.99s-2.26-.25-3.03-.76c-.78-.51-1.37-1.24-1.78-2.2-.41-.96-.61-1.99-.61-3.09,0-1.2.23-2.25.69-3.14.46-.89,1.11-1.57,1.96-2.04.85-.46,1.78-.7,2.8-.7,1.15,0,2.13.29,2.91.88.79.59,1.34,1.41,1.65,2.48l-1.5.35c-.27-.84-.66-1.45-1.17-1.83-.51-.38-1.15-.57-1.92-.57-.89,0-1.63.21-2.22.64-.6.43-1.01,1-1.26,1.71-.24.72-.36,1.46-.36,2.22,0,.98.14,1.84.43,2.57.29.73.73,1.28,1.33,1.64.6.36,1.26.54,1.96.54.86,0,1.58-.25,2.17-.74.59-.49.99-1.23,1.2-2.2Z" fill="#fff"/>
        </g>
      </g>
    </g>
  </g>
</svg>