<?xml version="1.0" encoding="UTF-8"?>
<svg id="Layer_3" data-name="Layer 3" xmlns="http://www.w3.org/2000/svg" viewBox="0 0 1920 1080">
  <g id="Layer_1" data-name="Layer 1">
    <g>
      <rect x="420" y="-420" width="1080" height="1920" transform="translate(1500 -420) rotate(90)" fill="#1a206a"/>
      <g>
        <g>
          <path d="M1231.41,264.22c-57.85,57.85-68.77,143.75-111.45,211.02-29.02,45.73-78.2,82.15-132.71,50.55-32.01-18.56-34.26-45.06-48.38-75.12-6.51-13.86-20.28-39.18-37.84-22.85,8.72-19.11,29.1-28.53,49.55-22.65,32.77,9.42,36.26,43.95,50.17,69.11,18.74,33.88,52.19,17.77,72.87-4.23,33.6-35.74,53.39-84.34,79.24-125.54,19.64-31.31,44.64-63.91,78.55-80.3Z" fill="#e88134"/>
          <path d="M972.13,406.71c-18.92-18.6-39.97-24.24-62.18-6.77-40.91,32.17-42.25,112.24-91.1,127.4-49.15,15.26-65.17-39.83-79.81-72.79-13.09-29.47-38.87-57.51-74.07-42.58,25.37-26.8,62.22-8.36,82.3,15.35,19.42,22.93,31.99,63.37,49.61,66.5,7.74,1.38,12.94-1.71,12.94-1.71,5.18-3.07,7.07-8.67,7.69-10.44,4.9-13.96,35.87-98.35,64.86-114.59,35.98-20.15,74.17,7.15,89.75,39.62Z" fill="#e88134"/>
        </g>
        <g>
          <g>
            <path d="M790.37,609.69l-18.33,71.38c-8.76,33.42-15.25,44.61-39.09,44.61s-30.33-13.3-37.96-43.15l-8.27-31.15c-4.38-15.74-6-18.17-9.73-18.17s-5.19,2.43-9.57,18.17l-8.27,31.15c-7.62,29.85-14.6,43.15-37.96,43.15s-30.33-11.19-39.09-44.61l-18.33-71.38h29.04l17.36,68.29c4.06,16.38,5.84,21.41,11.03,21.41,4.87,0,6.81-5.68,11.03-21.41l8.44-34.07c7.3-27.25,12.49-36.99,36.34-36.99s29.2,9.73,36.34,36.99l8.6,34.07c4.22,15.73,6.16,21.41,11.03,21.41,5.19,0,6.98-5.03,11.03-21.41l17.36-68.29h29.04Z" fill="#fcffff"/>
            <path d="M832.7,608.23v6.16c0,6.98-3.89,10.87-14.76,10.87h-1.95c-10.87,0-14.76-3.89-14.76-10.87v-6.16c0-6.98,3.89-11.03,14.76-11.03h1.95c10.87,0,14.76,4.06,14.76,11.03ZM803.82,633.86l26.28.16v88.89h-26.28v-89.06Z" fill="#fcffff"/>
            <path d="M971.06,722.92h-27.58l-4.87-16.22c-3.57-12.65-9.57-16.87-26.6-16.87h-34.55v33.25h-26.28v-125.88l26.28.32v68.46h35.69c16.22-.16,22.06-4.38,25.47-16.71l4.7-15.25h27.58l-6,18.82c-4.05,13.46-6.81,21.25-17.36,25.14,10.54,3.73,13.3,11.68,17.36,25.14l6.16,19.79Z" fill="#fcffff"/>
            <path d="M1015.99,608.23v6.16c0,6.98-3.89,10.87-14.76,10.87h-1.95c-10.87,0-14.76-3.89-14.76-10.87v-6.16c0-6.98,3.89-11.03,14.76-11.03h1.95c10.87,0,14.76,4.06,14.76,11.03ZM987.12,633.86l26.28.16v88.89h-26.28v-89.06Z" fill="#fcffff"/>
            <path d="M1215.35,670.85v52.07h-26.28v-48.5c0-11.03-6.49-16.71-23.52-16.71h-6.16c-16.22,0-22.87,5.03-23.52,15.09v50.12h-26.44v-50.12c-.65-10.06-7.14-15.09-23.36-15.09h-6.16c-17.2,0-23.52,5.68-23.52,16.71v48.5h-26.28v-52.07c0-23.2,15.09-36.82,47.21-36.82h6.16c20.28,0,33.09,5.35,39.26,16.22,6.16-10.87,18.82-16.22,39.26-16.22h6.16c32.12,0,47.21,13.63,47.21,36.82Z" fill="#fcffff"/>
            <path d="M1332.63,669.55v53.37h-62.62c-20.93,0-38.61-6-38.61-26.93v-2.92c0-22.55,19.95-26.93,38.45-26.93h36.5c-.81-6.98-4.06-10.22-11.52-10.22h-57.75v-21.9h62.45c22.39,0,33.09,15.09,33.09,35.53ZM1306.35,686.26h-38.77c-6.16,0-9.9,2.76-9.9,6.81v.97c0,5.19,3.73,6.97,9.9,6.97h38.77v-14.76Z" fill="#fcffff"/>
          </g>
          <g>
            <path d="M1346.18,620.82c-5.55,0-10.07-4.52-10.07-10.07s4.52-10.07,10.07-10.07,10.07,4.52,10.07,10.07-4.52,10.07-10.07,10.07ZM1346.18,601.5c-5.1,0-9.26,4.15-9.26,9.26s4.15,9.26,9.26,9.26,9.26-4.15,9.26-9.26-4.15-9.26-9.26-9.26Z" fill="#e88134"/>
            <path d="M1349.75,612.48l1.53.39c-.32,1.25-.9,2.21-1.73,2.87-.83.66-1.85.99-3.05.99s-2.26-.25-3.03-.76c-.78-.51-1.37-1.24-1.78-2.2-.41-.96-.61-1.99-.61-3.09,0-1.2.23-2.25.69-3.14.46-.89,1.11-1.57,1.96-2.04.85-.46,1.78-.7,2.8-.7,1.15,0,2.13.29,2.91.88.79.59,1.34,1.41,1.65,2.48l-1.5.35c-.27-.84-.66-1.45-1.17-1.83-.51-.38-1.15-.57-1.92-.57-.89,0-1.63.21-2.22.64-.6.43-1.01,1-1.26,1.71-.24.72-.36,1.46-.36,2.22,0,.98.14,1.84.43,2.57.29.73.73,1.28,1.33,1.64.6.36,1.26.54,1.96.54.86,0,1.58-.25,2.17-.74.59-.49.99-1.23,1.2-2.2Z" fill="#e88134"/>
          </g>
        </g>
        <g>
          <path d="M704.18,770.45l-13.11,21.26v14.85h-3.89v-14.85l-10.65-18.29h-4.05v-2.92c.51-.21,2.15-.51,3.43-.51,2.25,0,3.12.51,4.05,2.2l9.17,16.19,11.27-18.65,3.79.72Z" fill="#a5b0c2"/>
          <path d="M701.72,794.37c0-8.35,5.12-12.91,12.24-12.91s12.24,4.66,12.24,12.91-5.17,12.81-12.24,12.81-12.24-4.66-12.24-12.81ZM705.46,794.37c0,6.25,3.33,9.58,8.5,9.58s8.45-3.33,8.45-9.58-3.28-9.68-8.45-9.68-8.5,3.43-8.5,9.68Z" fill="#a5b0c2"/>
          <path d="M758.06,803.8l-.1,2.92c-.67.1-1.59.26-2.77.26-2.77,0-4.3-1.02-4.3-4.71-2,3.12-5.28,4.92-9.53,4.92-5.43,0-8.14-2.41-8.14-9.89v-12.04c-.77-.26-2-.36-3.02-.36l.1-2.92c.51-.1,1.54-.31,2.77-.31,2.77,0,3.84.92,3.84,3.84v11.22c0,5.28,1.64,7.12,5.69,7.12,5.38,0,8.3-4.25,8.3-8.35v-13.52h3.69v21.51c.82.21,2.1.31,3.48.31Z" fill="#a5b0c2"/>
          <path d="M775.22,781.82l-.21,3.64c-.36-.1-1.02-.2-1.95-.2-3.74,0-6.15,4.35-6.15,8.35v12.96h-3.69v-21.31c-.72-.26-1.64-.36-3.12-.36l.1-2.92c.36-.1,1.28-.41,2.61-.41,2.05,0,3.89,1.69,4.1,4.97,1.38-3.02,3.54-5.07,6.1-5.07,1.08,0,1.74.21,2.2.36Z" fill="#a5b0c2"/>
          <path d="M816.66,794.32c0,7.63-4.1,12.86-13.06,12.86-4.61,0-7.53-1.18-9.63-2.61v-34.37h3.69v14.96c1.54-2.2,4.05-3.69,7.63-3.69,7.07,0,11.37,4.46,11.37,12.86ZM812.87,794.27c0-6.1-2.71-9.58-7.79-9.58-4.61,0-7.43,3.38-7.43,6.71v11.01c1.02.67,2.87,1.54,6.2,1.54,5.74,0,9.01-3.33,9.01-9.68Z" fill="#a5b0c2"/>
          <path d="M848.57,803.8l-.1,2.92c-.67.1-1.59.26-2.77.26-2.77,0-4.3-1.02-4.3-4.71-2,3.12-5.28,4.92-9.53,4.92-5.43,0-8.14-2.41-8.14-9.89v-12.04c-.77-.26-2-.36-3.02-.36l.1-2.92c.51-.1,1.54-.31,2.77-.31,2.77,0,3.84.92,3.84,3.84v11.22c0,5.28,1.64,7.12,5.69,7.12,5.38,0,8.3-4.25,8.3-8.35v-13.52h3.69v21.51c.82.21,2.1.31,3.48.31Z" fill="#a5b0c2"/>
          <path d="M861.12,781.46c7.63,0,10.09,3.38,10.3,6.4l-3.53.56c-.46-2.31-2.36-3.84-6.45-3.84s-6.1,1.54-6.1,3.89c0,7.07,16.8,1.43,16.8,11.53,0,4.1-2.71,7.17-10.35,7.17-4.46,0-7.68-.92-10.04-2.56l.67-3.33c1.69,1.13,4.97,2.77,9.27,2.77,4.92,0,6.71-1.33,6.71-3.89,0-6.97-16.8-1.54-16.8-11.42,0-4.15,2.87-7.27,9.53-7.27Z" fill="#a5b0c2"/>
          <path d="M879.15,776.65c-1.54,0-2.71-1.23-2.71-2.77s1.18-2.71,2.71-2.71,2.71,1.23,2.71,2.71-1.18,2.77-2.71,2.77ZM880.94,803.49c.87.21,2,.31,3.48.31l-.1,2.92c-.56.1-1.43.26-3.38.26-2.61,0-3.69-.77-3.69-3.38v-21.62h3.69v21.51Z" fill="#a5b0c2"/>
          <path d="M915.31,803.8l-.1,2.92c-.77.15-1.59.26-3.23.26-2.92,0-3.79-.67-3.79-3.33v-11.53c0-4.51-1.84-7.33-6.61-7.33s-7.84,3.64-7.84,7.33v14.45h-3.69v-21.31c-.77-.26-1.64-.36-3.02-.36l.1-2.92c.41-.1,1.23-.41,2.36-.41,2.46,0,4.2,1.08,4.25,4.41,1.69-2.61,4.61-4.51,8.76-4.51,6.45,0,9.37,3.89,9.37,10.19v11.83c.82.21,1.95.31,3.43.31Z" fill="#a5b0c2"/>
          <path d="M931.29,803.95c4.15,0,7.12-1.95,7.99-2.82l.92,3.23c-1.43,1.18-4.92,2.82-9.42,2.82-7.74,0-11.99-4.76-11.99-13.06,0-7.48,4.35-12.65,11.22-12.65,7.27,0,10.71,5.33,10.71,11.78v2h-18.13c.26,5.89,3.33,8.71,8.71,8.71ZM922.64,792.32h14.34c-.31-5.38-3.07-7.63-6.86-7.63s-6.86,2.15-7.48,7.63Z" fill="#a5b0c2"/>
          <path d="M955.06,781.46c7.63,0,10.09,3.38,10.3,6.4l-3.53.56c-.46-2.31-2.36-3.84-6.45-3.84s-6.1,1.54-6.1,3.89c0,7.07,16.8,1.43,16.8,11.53,0,4.1-2.71,7.17-10.35,7.17-4.46,0-7.68-.92-10.04-2.56l.67-3.33c1.69,1.13,4.97,2.77,9.27,2.77,4.92,0,6.71-1.33,6.71-3.89,0-6.97-16.8-1.54-16.8-11.42,0-4.15,2.87-7.27,9.53-7.27Z" fill="#a5b0c2"/>
          <path d="M979.95,781.46c7.63,0,10.09,3.38,10.3,6.4l-3.53.56c-.46-2.31-2.36-3.84-6.45-3.84s-6.1,1.54-6.1,3.89c0,7.07,16.8,1.43,16.8,11.53,0,4.1-2.71,7.17-10.35,7.17-4.46,0-7.68-.92-10.04-2.56l.67-3.33c1.69,1.13,4.97,2.77,9.27,2.77,4.92,0,6.71-1.33,6.71-3.89,0-6.97-16.8-1.54-16.8-11.42,0-4.15,2.87-7.27,9.53-7.27Z" fill="#a5b0c2"/>
          <path d="M1002.8,805.89c0,3.33-2.1,5.48-4.35,6.92l-1.33-2.1c.97-.62,2.36-1.43,2.36-3.79,0-1.49-1.08-2.25-2.66-2.25,0-1.84.92-3.18,2.87-3.18s3.12,1.59,3.12,4.41Z" fill="#a5b0c2"/>
          <path d="M1032.71,781.46c7.63,0,10.09,3.38,10.3,6.4l-3.53.56c-.46-2.31-2.36-3.84-6.45-3.84s-6.1,1.54-6.1,3.89c0,7.07,16.8,1.43,16.8,11.53,0,4.1-2.71,7.17-10.35,7.17-4.46,0-7.68-.92-10.04-2.56l.67-3.33c1.69,1.13,4.97,2.77,9.27,2.77,4.92,0,6.71-1.33,6.71-3.89,0-6.97-16.8-1.54-16.8-11.42,0-4.15,2.87-7.27,9.53-7.27Z" fill="#a5b0c2"/>
          <path d="M1050.74,776.65c-1.54,0-2.71-1.23-2.71-2.77s1.18-2.71,2.71-2.71,2.71,1.23,2.71,2.71-1.18,2.77-2.71,2.77ZM1052.53,803.49c.87.21,2,.31,3.48.31l-.1,2.92c-.56.1-1.43.26-3.38.26-2.61,0-3.69-.77-3.69-3.38v-21.62h3.69v21.51Z" fill="#a5b0c2"/>
          <path d="M1102.12,803.85l-.1,2.92c-.72.1-1.64.26-3.23.26-2.97,0-3.84-.67-3.84-3.28v-11.83c0-4.56-1.69-7.12-6.04-7.12-4,0-6.86,3.48-6.86,6.92v14.85h-3.69v-14.5c0-4.71-1.69-7.27-6.04-7.27-4.05,0-6.86,3.54-6.86,6.92v14.85h-3.69v-21.31c-.82-.26-1.64-.36-3.12-.36l.1-2.92c.67-.2,1.49-.41,2.36-.41,2.82,0,4.1,1.23,4.3,4.15,1.59-2.46,4.2-4.25,7.68-4.25,4.25,0,7.02,2,8.25,5.38,1.43-3.12,4.41-5.38,8.3-5.38,5.94,0,9.02,3.89,9.02,10.3v11.78c.87.21,2,.31,3.48.31Z" fill="#a5b0c2"/>
          <path d="M1129.98,794.01c0,8.4-4.51,13.16-12.75,13.16-2.56,0-4.66-.51-6.25-1.23v9.83h-3.69v-30.53c-.72-.26-1.84-.36-3.12-.36l.1-2.92c.31-.1,1.43-.41,2.51-.41,2.41,0,3.79,1.43,4.1,3.84,1.54-2.31,4.15-3.94,7.94-3.94,6.86,0,11.17,4.56,11.17,12.55ZM1126.19,794.16c0-6.4-2.87-9.48-7.84-9.48-4.41,0-7.38,3.28-7.38,6.81v11.01c1.43.72,3.38,1.43,6.1,1.43,5.58,0,9.12-2.97,9.12-9.78Z" fill="#a5b0c2"/>
          <path d="M1135.46,770.19h3.69v33.3c.87.26,2.41.36,4.25.36l-.1,2.92c-.92.1-2,.21-3.48.21-3.07,0-4.35-.82-4.35-3.79v-32.99Z" fill="#a5b0c2"/>
          <path d="M1149.19,776.65c-1.54,0-2.71-1.23-2.71-2.77s1.18-2.71,2.71-2.71,2.71,1.23,2.71,2.71-1.18,2.77-2.71,2.77ZM1150.98,803.49c.87.21,2,.31,3.48.31l-.1,2.92c-.56.1-1.43.26-3.38.26-2.61,0-3.69-.77-3.69-3.38v-21.62h3.69v21.51Z" fill="#a5b0c2"/>
          <path d="M1180.79,803.8l-.1,2.92c-.56.1-1.49.26-3.38.26-2.66,0-3.69-.77-3.69-3.38v-18.49h-9.99v21.46h-3.69v-21.46h-4.71v-3.12h4.71v-4.46c0-5.53,3.18-7.84,8.91-7.84,3.12,0,5.17.56,6.45,1.08l-.26,3.33c-1.02-.51-3.12-1.08-5.69-1.08-3.69,0-5.74,1.28-5.74,4.46v4.51h13.68v21.51c.87.21,2,.31,3.48.31Z" fill="#a5b0c2"/>
          <path d="M1196.72,803.95c4.15,0,7.12-1.95,7.99-2.82l.92,3.23c-1.43,1.18-4.92,2.82-9.42,2.82-7.74,0-11.99-4.76-11.99-13.06,0-7.48,4.35-12.65,11.22-12.65,7.27,0,10.71,5.33,10.71,11.78v2h-18.13c.26,5.89,3.33,8.71,8.71,8.71ZM1188.06,792.32h14.34c-.31-5.38-3.07-7.63-6.86-7.63s-6.86,2.15-7.48,7.63Z" fill="#a5b0c2"/>
          <path d="M1237.49,803.8l-.1,2.92c-.72.1-1.64.26-3.33.26-2.1,0-3.69-.77-3.89-4.15-1.64,2.46-4.41,4.35-8.61,4.35-5.89,0-10.35-4.3-10.35-12.6s4.81-13.11,11.73-13.11c3.43,0,5.69.87,7.22,1.79v-13.06h3.69v33.3c.92.21,2,.31,3.64.31ZM1230.17,796.78v-9.89c-1.23-1.02-3.48-2.2-7.02-2.2-4.92,0-8.2,3.74-8.2,9.89,0,6.86,3.53,9.37,7.32,9.37,4.46,0,7.89-3.38,7.89-7.17Z" fill="#a5b0c2"/>
          <path d="M1244.35,807.18c-1.74,0-3.18-1.38-3.18-3.18s1.43-3.18,3.18-3.18,3.18,1.38,3.18,3.18-1.43,3.18-3.18,3.18Z" fill="#a5b0c2"/>
        </g>
      </g>
    </g>
  </g>
</svg>