<?xml version="1.0" encoding="UTF-8"?>
<svg id="Layer_2" data-name="Layer 2" xmlns="http://www.w3.org/2000/svg" viewBox="0 0 1336.69 272.92">
  <g id="Layer_1" data-name="Layer 1">
    <g>
      <g>
        <path d="M565.33,0c-57.73,57.74-68.64,143.47-111.24,210.6-28.96,45.65-78.05,81.99-132.45,50.45-31.95-18.52-34.19-44.97-48.29-74.97-6.5-13.83-20.24-39.1-37.77-22.8,8.7-19.07,29.04-28.47,49.46-22.6,32.7,9.4,36.19,43.87,50.07,68.97,18.7,33.82,52.08,17.73,72.73-4.22,33.54-35.67,53.29-84.18,79.09-125.3,19.6-31.25,44.55-63.78,78.4-80.15Z" fill="#e88134"/>
        <path d="M306.56,142.21c-18.88-18.56-39.89-24.19-62.06-6.76-40.83,32.1-42.17,112.02-90.92,127.16-49.06,15.23-65.04-39.76-79.65-72.64-13.07-29.41-38.8-57.4-73.93-42.49,25.32-26.75,62.1-8.35,82.14,15.32,19.38,22.88,31.93,63.25,49.52,66.37,7.72,1.37,12.92-1.7,12.92-1.7,5.17-3.06,7.05-8.65,7.68-10.42,4.89-13.94,35.8-98.16,64.74-114.36,35.91-20.11,74.03,7.13,89.57,39.54Z" fill="#e88134"/>
      </g>
      <g>
        <g>
          <g>
            <path d="M771.92,88.84l-18.29,71.24c-8.74,33.35-15.22,44.52-39.02,44.52s-30.28-13.28-37.88-43.06l-8.26-31.08c-4.37-15.7-5.99-18.13-9.71-18.13s-5.18,2.43-9.55,18.13l-8.26,31.08c-7.61,29.79-14.57,43.06-37.88,43.06s-30.28-11.17-39.02-44.52l-18.29-71.24h28.98l17.32,68.16c4.05,16.35,5.83,21.37,11.01,21.37,4.86,0,6.8-5.67,11.01-21.37l8.42-34c7.29-27.2,12.47-36.91,36.27-36.91s29.14,9.71,36.27,36.91l8.58,34c4.21,15.7,6.15,21.37,11.01,21.37,5.18,0,6.96-5.02,11.01-21.37l17.32-68.16h28.98Z" fill="#1a206a"/>
            <path d="M814.16,87.38v6.15c0,6.96-3.89,10.85-14.73,10.85h-1.94c-10.85,0-14.73-3.88-14.73-10.85v-6.15c0-6.96,3.89-11.01,14.73-11.01h1.94c10.85,0,14.73,4.05,14.73,11.01ZM785.35,112.96l26.23.16v88.72h-26.23v-88.88Z" fill="#1a206a"/>
            <path d="M952.26,201.84h-27.52l-4.86-16.19c-3.56-12.63-9.55-16.84-26.55-16.84h-34.48v33.19h-26.23v-125.63l26.23.32v68.32h35.62c16.19-.16,22.02-4.37,25.42-16.68l4.69-15.22h27.52l-5.99,18.78c-4.05,13.44-6.8,21.21-17.32,25.09,10.52,3.72,13.28,11.66,17.32,25.09l6.15,19.75Z" fill="#1a206a"/>
            <path d="M997.1,87.38v6.15c0,6.96-3.89,10.85-14.73,10.85h-1.94c-10.85,0-14.73-3.88-14.73-10.85v-6.15c0-6.96,3.88-11.01,14.73-11.01h1.94c10.85,0,14.73,4.05,14.73,11.01ZM968.28,112.96l26.23.16v88.72h-26.23v-88.88Z" fill="#1a206a"/>
            <path d="M1196.07,149.87v51.97h-26.23v-48.41c0-11.01-6.48-16.68-23.48-16.68h-6.15c-16.19,0-22.83,5.02-23.48,15.06v50.03h-26.39v-50.03c-.65-10.04-7.12-15.06-23.31-15.06h-6.15c-17.16,0-23.48,5.67-23.48,16.68v48.41h-26.23v-51.97c0-23.15,15.06-36.75,47.11-36.75h6.15c20.24,0,33.03,5.34,39.18,16.19,6.15-10.85,18.78-16.19,39.18-16.19h6.15c32.06,0,47.11,13.6,47.11,36.75Z" fill="#1a206a"/>
            <path d="M1313.12,148.58v53.26h-62.49c-20.88,0-38.53-5.99-38.53-26.88v-2.91c0-22.5,19.91-26.88,38.37-26.88h36.43c-.81-6.96-4.05-10.2-11.5-10.2h-57.64v-21.86h62.33c22.34,0,33.03,15.06,33.03,35.46ZM1286.89,165.25h-38.69c-6.15,0-9.88,2.75-9.88,6.8v.97c0,5.18,3.72,6.96,9.88,6.96h38.69v-14.73Z" fill="#1a206a"/>
          </g>
          <g>
            <path d="M1326.64,99.95c-5.54,0-10.05-4.51-10.05-10.05s4.51-10.05,10.05-10.05,10.05,4.51,10.05,10.05-4.51,10.05-10.05,10.05ZM1326.64,80.66c-5.09,0-9.24,4.14-9.24,9.24s4.14,9.24,9.24,9.24,9.24-4.14,9.24-9.24-4.14-9.24-9.24-9.24Z" fill="#1a206a"/>
            <path d="M1330.21,91.62l1.52.39c-.32,1.25-.89,2.21-1.72,2.86-.83.66-1.84.99-3.04.99s-2.25-.25-3.03-.76c-.78-.51-1.37-1.24-1.78-2.2-.41-.96-.61-1.99-.61-3.09,0-1.2.23-2.25.69-3.14.46-.89,1.11-1.57,1.96-2.03.85-.46,1.78-.7,2.79-.7,1.15,0,2.12.29,2.91.88.79.59,1.33,1.41,1.64,2.47l-1.5.35c-.27-.84-.65-1.45-1.16-1.83-.51-.38-1.15-.57-1.92-.57-.89,0-1.62.21-2.22.64-.59.42-1.01.99-1.25,1.71-.24.71-.36,1.45-.36,2.21,0,.98.14,1.83.43,2.57.29.73.73,1.28,1.33,1.64.6.36,1.25.54,1.96.54.85,0,1.58-.25,2.17-.74.59-.49.99-1.22,1.2-2.19Z" fill="#1a206a"/>
          </g>
        </g>
        <g>
          <path d="M596.76,228.57l-12.54,20.32v14.2h-3.72v-14.2l-10.19-17.48h-3.87v-2.79c.49-.2,2.06-.49,3.28-.49,2.15,0,2.99.49,3.87,2.11l8.77,15.48,10.77-17.83,3.62.69Z" fill="#a5b0c2"/>
          <path d="M594.4,251.44c0-7.98,4.9-12.34,11.7-12.34s11.7,4.46,11.7,12.34-4.95,12.24-11.7,12.24-11.7-4.46-11.7-12.24ZM597.98,251.44c0,5.97,3.18,9.16,8.13,9.16s8.08-3.18,8.08-9.16-3.13-9.26-8.08-9.26-8.13,3.28-8.13,9.26Z" fill="#a5b0c2"/>
          <path d="M648.27,260.45l-.1,2.79c-.64.1-1.52.25-2.65.25-2.64,0-4.11-.98-4.11-4.51-1.91,2.99-5.04,4.7-9.11,4.7-5.19,0-7.79-2.3-7.79-9.45v-11.51c-.73-.25-1.91-.34-2.89-.34l.1-2.79c.49-.1,1.47-.29,2.64-.29,2.65,0,3.67.88,3.67,3.67v10.73c0,5.04,1.57,6.81,5.44,6.81,5.14,0,7.93-4.07,7.93-7.98v-12.93h3.53v20.57c.78.2,2.01.29,3.33.29Z" fill="#a5b0c2"/>
          <path d="M664.68,239.44l-.2,3.48c-.34-.1-.98-.2-1.86-.2-3.58,0-5.88,4.16-5.88,7.98v12.39h-3.53v-20.37c-.69-.25-1.57-.34-2.99-.34l.1-2.79c.34-.1,1.22-.39,2.5-.39,1.96,0,3.72,1.62,3.92,4.75,1.32-2.89,3.38-4.85,5.83-4.85,1.03,0,1.67.2,2.11.34Z" fill="#a5b0c2"/>
          <path d="M704.3,251.39c0,7.3-3.92,12.29-12.49,12.29-4.41,0-7.2-1.13-9.21-2.5v-32.86h3.53v14.3c1.47-2.11,3.87-3.53,7.3-3.53,6.76,0,10.87,4.26,10.87,12.29ZM700.67,251.34c0-5.83-2.6-9.16-7.44-9.16-4.41,0-7.1,3.23-7.1,6.42v10.53c.98.64,2.74,1.47,5.93,1.47,5.48,0,8.62-3.18,8.62-9.26Z" fill="#a5b0c2"/>
          <path d="M734.81,260.45l-.1,2.79c-.64.1-1.52.25-2.65.25-2.64,0-4.11-.98-4.11-4.51-1.91,2.99-5.04,4.7-9.11,4.7-5.19,0-7.79-2.3-7.79-9.45v-11.51c-.73-.25-1.91-.34-2.89-.34l.1-2.79c.49-.1,1.47-.29,2.64-.29,2.65,0,3.67.88,3.67,3.67v10.73c0,5.04,1.57,6.81,5.44,6.81,5.14,0,7.93-4.07,7.93-7.98v-12.93h3.53v20.57c.78.2,2.01.29,3.33.29Z" fill="#a5b0c2"/>
          <path d="M746.8,239.09c7.3,0,9.65,3.23,9.84,6.12l-3.38.54c-.44-2.2-2.25-3.67-6.17-3.67s-5.83,1.47-5.83,3.72c0,6.76,16.06,1.37,16.06,11.02,0,3.92-2.6,6.86-9.89,6.86-4.26,0-7.35-.88-9.6-2.45l.64-3.18c1.62,1.08,4.75,2.65,8.86,2.65,4.7,0,6.42-1.27,6.42-3.72,0-6.66-16.06-1.47-16.06-10.92,0-3.97,2.74-6.95,9.11-6.95Z" fill="#a5b0c2"/>
          <path d="M764.04,234.49c-1.47,0-2.6-1.18-2.6-2.64s1.13-2.6,2.6-2.6,2.6,1.18,2.6,2.6-1.13,2.64-2.6,2.64ZM765.76,260.15c.83.2,1.91.29,3.33.29l-.1,2.79c-.54.1-1.37.25-3.23.25-2.5,0-3.53-.73-3.53-3.23v-20.67h3.53v20.57Z" fill="#a5b0c2"/>
          <path d="M798.62,260.45l-.1,2.79c-.73.15-1.52.25-3.08.25-2.79,0-3.62-.64-3.62-3.18v-11.02c0-4.31-1.76-7-6.32-7s-7.49,3.48-7.49,7v13.81h-3.53v-20.37c-.73-.25-1.57-.34-2.89-.34l.1-2.79c.39-.1,1.18-.39,2.25-.39,2.35,0,4.02,1.03,4.06,4.21,1.62-2.5,4.41-4.31,8.38-4.31,6.17,0,8.96,3.72,8.96,9.75v11.31c.78.2,1.86.29,3.28.29Z" fill="#a5b0c2"/>
          <path d="M813.9,260.59c3.97,0,6.81-1.86,7.64-2.69l.88,3.09c-1.37,1.13-4.7,2.69-9.01,2.69-7.4,0-11.46-4.55-11.46-12.49,0-7.15,4.16-12.1,10.73-12.1,6.95,0,10.24,5.09,10.24,11.26v1.91h-17.34c.24,5.63,3.18,8.33,8.33,8.33ZM805.62,249.48h13.71c-.29-5.14-2.94-7.3-6.56-7.3s-6.56,2.06-7.15,7.3Z" fill="#a5b0c2"/>
          <path d="M836.62,239.09c7.3,0,9.65,3.23,9.84,6.12l-3.38.54c-.44-2.2-2.25-3.67-6.17-3.67s-5.83,1.47-5.83,3.72c0,6.76,16.06,1.37,16.06,11.02,0,3.92-2.6,6.86-9.89,6.86-4.26,0-7.35-.88-9.6-2.45l.64-3.18c1.62,1.08,4.75,2.65,8.86,2.65,4.7,0,6.42-1.27,6.42-3.72,0-6.66-16.06-1.47-16.06-10.92,0-3.97,2.74-6.95,9.11-6.95Z" fill="#a5b0c2"/>
          <path d="M860.42,239.09c7.3,0,9.65,3.23,9.84,6.12l-3.38.54c-.44-2.2-2.25-3.67-6.17-3.67s-5.83,1.47-5.83,3.72c0,6.76,16.06,1.37,16.06,11.02,0,3.92-2.6,6.86-9.89,6.86-4.26,0-7.35-.88-9.6-2.45l.64-3.18c1.62,1.08,4.75,2.65,8.86,2.65,4.7,0,6.42-1.27,6.42-3.72,0-6.66-16.06-1.47-16.06-10.92,0-3.97,2.74-6.95,9.11-6.95Z" fill="#a5b0c2"/>
          <path d="M882.26,262.46c0,3.18-2.01,5.24-4.16,6.61l-1.27-2.01c.93-.59,2.25-1.37,2.25-3.62,0-1.42-1.03-2.15-2.55-2.15,0-1.76.88-3.04,2.74-3.04s2.99,1.52,2.99,4.21Z" fill="#a5b0c2"/>
          <path d="M910.86,239.09c7.3,0,9.65,3.23,9.84,6.12l-3.38.54c-.44-2.2-2.25-3.67-6.17-3.67s-5.83,1.47-5.83,3.72c0,6.76,16.06,1.37,16.06,11.02,0,3.92-2.6,6.86-9.89,6.86-4.26,0-7.35-.88-9.6-2.45l.64-3.18c1.62,1.08,4.75,2.65,8.86,2.65,4.7,0,6.42-1.27,6.42-3.72,0-6.66-16.06-1.47-16.06-10.92,0-3.97,2.74-6.95,9.11-6.95Z" fill="#a5b0c2"/>
          <path d="M928.1,234.49c-1.47,0-2.6-1.18-2.6-2.64s1.13-2.6,2.6-2.6,2.6,1.18,2.6,2.6-1.13,2.64-2.6,2.64ZM929.81,260.15c.83.2,1.91.29,3.33.29l-.1,2.79c-.54.1-1.37.25-3.23.25-2.5,0-3.53-.73-3.53-3.23v-20.67h3.53v20.57Z" fill="#a5b0c2"/>
          <path d="M977.22,260.5l-.1,2.79c-.69.1-1.57.24-3.09.24-2.84,0-3.67-.64-3.67-3.13v-11.31c0-4.36-1.62-6.81-5.78-6.81-3.82,0-6.56,3.33-6.56,6.61v14.2h-3.53v-13.86c0-4.51-1.62-6.95-5.78-6.95-3.87,0-6.56,3.38-6.56,6.61v14.2h-3.53v-20.37c-.78-.25-1.57-.34-2.99-.34l.1-2.79c.64-.2,1.42-.39,2.25-.39,2.69,0,3.92,1.18,4.11,3.97,1.52-2.35,4.02-4.07,7.35-4.07,4.06,0,6.71,1.91,7.88,5.14,1.37-2.99,4.21-5.14,7.93-5.14,5.68,0,8.62,3.72,8.62,9.84v11.26c.83.2,1.91.29,3.33.29Z" fill="#a5b0c2"/>
          <path d="M1003.86,251.09c0,8.03-4.31,12.59-12.19,12.59-2.45,0-4.46-.49-5.98-1.17v9.4h-3.53v-29.19c-.69-.25-1.76-.34-2.99-.34l.1-2.79c.29-.1,1.37-.39,2.4-.39,2.3,0,3.62,1.37,3.92,3.67,1.47-2.2,3.97-3.77,7.59-3.77,6.56,0,10.68,4.36,10.68,12ZM1000.23,251.24c0-6.12-2.74-9.06-7.49-9.06-4.21,0-7.05,3.13-7.05,6.51v10.53c1.37.69,3.23,1.37,5.83,1.37,5.34,0,8.72-2.84,8.72-9.35Z" fill="#a5b0c2"/>
          <path d="M1009.1,228.32h3.53v31.83c.83.24,2.3.34,4.06.34l-.1,2.79c-.88.1-1.91.2-3.33.2-2.94,0-4.16-.78-4.16-3.62v-31.54Z" fill="#a5b0c2"/>
          <path d="M1022.22,234.49c-1.47,0-2.6-1.18-2.6-2.64s1.13-2.6,2.6-2.6,2.6,1.18,2.6,2.6-1.13,2.64-2.6,2.64ZM1023.94,260.15c.83.2,1.91.29,3.33.29l-.1,2.79c-.54.1-1.37.25-3.23.25-2.5,0-3.53-.73-3.53-3.23v-20.67h3.53v20.57Z" fill="#a5b0c2"/>
          <path d="M1052.44,260.45l-.1,2.79c-.54.1-1.42.25-3.23.25-2.55,0-3.53-.73-3.53-3.23v-17.68h-9.55v20.52h-3.53v-20.52h-4.51v-2.99h4.51v-4.26c0-5.29,3.04-7.49,8.52-7.49,2.99,0,4.95.54,6.17,1.03l-.25,3.18c-.98-.49-2.99-1.03-5.44-1.03-3.53,0-5.49,1.22-5.49,4.26v4.31h13.08v20.57c.83.2,1.91.29,3.33.29Z" fill="#a5b0c2"/>
          <path d="M1067.67,260.59c3.97,0,6.81-1.86,7.64-2.69l.88,3.09c-1.37,1.13-4.7,2.69-9.01,2.69-7.4,0-11.46-4.55-11.46-12.49,0-7.15,4.16-12.1,10.73-12.1,6.95,0,10.24,5.09,10.24,11.26v1.91h-17.34c.24,5.63,3.18,8.33,8.33,8.33ZM1059.39,249.48h13.71c-.29-5.14-2.94-7.3-6.56-7.3s-6.56,2.06-7.15,7.3Z" fill="#a5b0c2"/>
          <path d="M1106.65,260.45l-.1,2.79c-.69.1-1.57.25-3.18.25-2.01,0-3.53-.73-3.72-3.97-1.57,2.35-4.21,4.16-8.23,4.16-5.63,0-9.89-4.11-9.89-12.05s4.6-12.54,11.21-12.54c3.28,0,5.44.83,6.91,1.71v-12.49h3.53v31.83c.88.2,1.91.29,3.48.29ZM1099.65,253.74v-9.45c-1.18-.98-3.33-2.11-6.71-2.11-4.7,0-7.84,3.58-7.84,9.45,0,6.56,3.38,8.96,7,8.96,4.26,0,7.54-3.23,7.54-6.86Z" fill="#a5b0c2"/>
          <path d="M1113.21,263.68c-1.66,0-3.04-1.32-3.04-3.04s1.37-3.04,3.04-3.04,3.04,1.32,3.04,3.04-1.37,3.04-3.04,3.04Z" fill="#a5b0c2"/>
        </g>
      </g>
    </g>
  </g>
</svg>