<?xml version="1.0" encoding="UTF-8"?>
<svg id="Layer_3" data-name="Layer 3" xmlns="http://www.w3.org/2000/svg" viewBox="0 0 1920 1080">
  <g id="Layer_1" data-name="Layer 1">
    <g>
      <rect x="420" y="-420" width="1080" height="1920" transform="translate(1500 -420) rotate(90)" fill="#fff"/>
      <g>
        <path d="M1469.78,293.9c-104.12,104.13-123.79,258.74-200.61,379.82-52.23,82.32-140.76,147.86-238.87,90.99-57.62-33.4-61.66-81.1-87.09-135.21-11.72-24.95-36.5-70.52-68.11-41.12,15.69-34.39,52.38-51.34,89.19-40.76,58.98,16.96,65.27,79.11,90.31,124.39,33.73,60.99,93.93,31.98,131.16-7.61,60.48-64.33,96.11-151.81,142.63-225.97,35.36-56.36,80.35-115.03,141.39-144.54Z" fill="#e88134"/>
        <path d="M1003.1,550.38c-34.05-33.48-71.94-43.63-111.92-12.19-73.63,57.9-76.06,202.02-163.98,229.32-88.47,27.47-117.29-71.7-143.65-131.01-23.57-53.04-69.97-103.51-133.33-76.64,45.67-48.24,111.99-15.05,148.14,27.63,34.95,41.26,57.58,114.06,89.3,119.7,13.93,2.48,23.3-3.07,23.3-3.07,9.32-5.52,12.72-15.6,13.84-18.8,8.82-25.13,64.56-177.02,116.75-206.25,64.76-36.27,133.51,12.86,161.54,71.31Z" fill="#e88134"/>
      </g>
    </g>
  </g>
</svg>